# xmcd CD database file
#
# Track frame offsets:
#	150
#	16075
#	33647
#	50295
#	63190
#	82210
#	101607
#	118240
#	134680
#	146702
#	161245
#	174940
#
# Disc length: 2591 seconds
#
# Revision: 1
# Processed by: cddbd v1.5PL3 Copyright (c) Steve Scherf et al.
# Submitted via: CDex 1.51
#
DISCID=a90a1d0c
DTITLE=Kenny Rogers - Greatest Hits
DYEAR=1981
DGENRE=Country
TTITLE0=The Gambler
TTITLE1=Lady
TTITLE2=Don't Fall in Lover with a Dreamer
TTITLE3=Ruby Don't Take Your Love to Town
TTITLE4=She Believes in Me
TTITLE5=Coward of the County
TTITLE6=Lucille
TTITLE7=You Decorated my Life
TTITLE8=Reuben James
TTITLE9=Love the World Away
TTITLE10=Every Time Two Fools Collide
TTITLE11=Long Arm of the Law
EXTD=YEAR: 1981
EXTT0=
EXTT1=
EXTT2=
EXTT3=
EXTT4=
EXTT5=
EXTT6=
EXTT7=
EXTT8=
EXTT9=
EXTT10=
EXTT11=
PLAYORDER=
